<?xml version="1.0" standalone="no"?>
<!DOCTYPE svg PUBLIC "-//W3C//DTD SVG 20010904//EN"
 "http://www.w3.org/TR/2001/REC-SVG-20010904/DTD/svg10.dtd">
<svg version="1.0" xmlns="http://www.w3.org/2000/svg"
 width="512.000000pt" height="512.000000pt" viewBox="0 0 512.000000 512.000000"
 preserveAspectRatio="xMidYMid meet">

<g transform="translate(0.000000,512.000000) scale(0.100000,-0.100000)"
fill="#000000" stroke="none">
<path d="M1760 5100 c-352 -75 -622 -354 -686 -710 -8 -44 -13 -150 -14 -257
l0 -183 -355 0 c-195 0 -355 -3 -355 -7 0 -5 -36 -627 -81 -1383 -69 -1185
-79 -1386 -69 -1453 43 -301 259 -546 557 -630 77 -21 87 -22 967 -25 723 -2
887 0 883 10 -42 92 -83 206 -102 281 -160 633 140 1286 724 1577 103 52 169
76 286 105 86 21 90 23 93 51 1 16 -15 339 -38 717 -22 378 -40 703 -40 722
l0 35 -354 0 -353 0 -6 208 c-4 163 -10 225 -26 290 -116 462 -572 750 -1031
652z m301 -294 c196 -42 367 -200 430 -396 18 -54 22 -99 27 -262 l5 -198 148
0 149 0 0 -335 0 -335 -150 0 -150 0 0 335 0 335 -580 0 -580 0 0 -335 0 -335
-150 0 -150 0 0 335 0 335 150 0 150 0 0 173 c0 281 34 382 175 522 147 148
327 203 526 161z"/>
<path d="M3718 2160 c-113 -14 -229 -49 -343 -104 -297 -145 -496 -390 -582
-714 -22 -82 -26 -120 -27 -247 -1 -158 7 -214 51 -350 161 -500 683 -818
1199 -730 713 122 1113 875 809 1522 -59 126 -105 193 -203 295 -238 247 -567
367 -904 328z m747 -790 c0 -9 -775 -810 -783 -810 -7 0 -475 527 -480 540 -3
8 205 195 217 195 4 0 65 -65 135 -145 71 -80 132 -146 136 -148 4 -1 132 128
286 287 l278 289 106 -101 c58 -55 105 -103 105 -107z"/>
</g>
</svg>
